<svg version="1.1" id="Layer_1" xmlns="http://www.w3.org/2000/svg" xmlns:xlink="http://www.w3.org/1999/xlink" x="0px" y="0px"
	 width="100%" viewBox="0 0 1024 942" enable-background="new 0 0 1024 942" xml:space="preserve">
<path fill="none" opacity="1.000000" stroke="#000000" stroke-linecap="round" stroke-linejoin="round" stroke-width="21.000000"
	d="
M625.000000,527.000000 
	C602.465393,530.128113 580.467773,535.494873 559.006897,543.019653 
	C545.718201,547.679016 532.817749,553.256836 521.036621,561.055298 
	C515.654785,564.617798 511.042023,564.512329 505.434479,561.107971 
	C482.235046,547.023376 456.980774,538.198547 430.527649,532.374390 
	C421.544037,530.396423 412.553284,528.571716 403.500000,527.000000 
"/>
<path fill="none" opacity="1.000000" stroke="#000000" stroke-linecap="round" stroke-linejoin="round" stroke-width="4.000000"
	d="
M261.000000,529.250000 
	C248.905899,532.614319 237.307709,528.154236 225.500000,527.000000 
"/>
<path fill="none" opacity="1.000000" stroke="#000000" stroke-linecap="round" stroke-linejoin="round" stroke-width="3.000000"
	d="
M258.500000,480.000000 
	C265.294739,484.413940 273.150818,486.485352 280.609497,489.199066 
	C284.490662,490.611145 289.488007,488.699707 293.991486,488.379913 
	C312.012115,487.100311 329.966339,486.928589 348.008728,488.392395 
	C369.388855,490.126984 390.424011,493.447723 410.993958,499.520508 
	C426.261139,504.027832 441.099030,509.595276 455.569977,516.350037 
	C467.367767,521.857056 478.795074,527.898804 490.107269,534.310730 
	C495.104919,537.143494 499.891235,540.138184 504.500000,543.500000 
"/>
<path fill="none" opacity="1.000000" stroke="#000000" stroke-linecap="round" stroke-linejoin="round" stroke-width="3.000000"
	d="
M743.500000,442.499969 
	C736.833313,446.833313 730.073975,451.033203 723.545471,455.565460 
	C720.924561,457.384949 718.062683,456.700317 715.491333,456.840576 
	C675.542908,459.019623 638.104431,470.696442 602.075989,487.166199 
	C588.381958,493.426178 575.504761,501.481323 562.982971,509.974884 
	C552.514465,517.075623 542.287781,524.486450 532.500000,532.500000 
"/>
<path fill="none" opacity="1.000000" stroke="#000000" stroke-linecap="round" stroke-linejoin="round" stroke-width="5.000000"
	d="
M767.000000,480.000000 
	C763.359802,483.096832 758.631409,483.926483 754.495789,485.991547 
	C754.362366,486.058167 754.133179,485.938660 754.004822,486.008820 
	C743.410889,491.798279 732.355164,487.483612 721.500000,487.497131 
	C710.833313,487.510376 700.158875,487.250336 689.502563,487.582794 
	C681.656128,487.827576 673.786072,488.490875 666.008850,489.564240 
	C642.698364,492.781494 619.646729,496.977753 597.449097,505.365265 
	C581.268250,511.479309 565.154785,517.712158 550.079224,526.141663 
	C540.221680,531.653442 529.527954,536.065613 521.500000,544.500000 
"/>
<path fill="none" opacity="1.000000" stroke="#000000" stroke-linecap="round" stroke-linejoin="round" stroke-width="3.000000"
	d="
M282.500000,442.500000 
	C288.846405,447.739410 296.090393,451.635864 303.087158,455.855469 
	C305.190033,457.123657 308.327362,456.892181 311.000977,456.962952 
	C326.961395,457.385559 342.534973,460.282410 358.002533,463.989380 
	C388.142639,471.212738 416.721497,482.341095 443.498383,498.002777 
	C459.376465,507.289764 474.812134,517.231445 488.993835,529.007446 
	C490.958466,530.638794 493.787994,531.658997 493.500000,535.000000 
"/>
<path fill="none" opacity="1.000000" stroke="#000000" stroke-linecap="round" stroke-linejoin="round" stroke-width="12.000000"
	d="
M432.000000,336.250000 
	C434.666656,336.000000 437.339172,335.485748 439.999023,335.544464 
	C453.505066,335.842468 467.018738,335.966003 480.519806,336.475250 
	C489.987671,336.832397 499.883972,334.970551 509.483124,335.716919 
	C519.890869,336.526123 530.163696,334.699371 540.502014,335.473114 
	C543.243958,335.678345 546.081726,335.116364 548.514709,336.980835 
	C548.910156,337.283905 549.565674,337.578247 549.990417,337.464355 
	C562.471436,334.116882 575.510498,337.456390 588.003052,334.261993 
	C593.350220,332.894714 599.298523,333.894440 604.043579,330.053833 
	C604.729248,329.498840 606.203247,329.220184 606.968750,329.568695 
	C615.129333,333.283295 624.443420,332.325226 632.597961,336.822357 
	C645.009216,343.666962 650.578857,354.573273 652.887268,367.520111 
	C655.376709,381.482635 652.682556,394.679596 644.471252,406.479980 
	C643.129028,408.408875 641.608887,410.189148 639.526001,411.540070 
	C626.411987,420.045502 612.049561,423.707642 596.499878,423.002502 
	C588.833862,422.654846 581.166748,422.332153 573.499878,422.002808 
	C573.000793,421.981384 572.394958,421.813873 572.015747,422.027863 
	C566.320435,425.241608 561.515930,422.552673 556.471863,420.056854 
	C548.014038,415.871979 538.769287,414.335449 529.497070,414.134949 
	C519.344543,413.915436 509.134491,413.210663 498.985809,414.915497 
	C496.581635,415.319336 493.998871,414.507996 491.500183,414.525696 
	C474.999817,414.642639 458.497742,415.049896 442.001251,414.878357 
	C436.492340,414.821106 430.924133,413.998322 425.482971,412.564636 
	C420.384003,411.221069 416.787689,408.497681 415.000000,403.500000 
"/>
<path fill="none" opacity="1.000000" stroke="#000000" stroke-linecap="round" stroke-linejoin="round" stroke-width="4.000000"
	d="
M518.500000,622.500000 
	C507.519135,613.462158 483.975739,614.777893 475.588684,629.550354 
	C469.960541,639.463440 469.439209,650.168701 474.593048,660.453369 
	C479.718292,670.680969 488.570038,675.407043 499.999664,675.531189 
	C505.883331,675.595093 511.290192,674.487488 516.587524,671.664185 
	C519.158569,670.293945 519.541992,668.851990 519.519287,666.499817 
	C519.461365,660.500366 519.500000,654.500000 519.500000,648.500000 
"/>
<path fill="none" opacity="1.000000" stroke="#000000" stroke-linecap="round" stroke-linejoin="round" stroke-width="12.000000"
	d="
M581.000000,299.000000 
	C573.042725,300.183960 565.077881,300.929047 556.996887,300.569794 
	C552.180542,300.355652 547.326477,301.079346 542.501526,300.945801 
	C533.977539,300.709900 525.478516,299.711212 516.987305,299.219147 
	C506.037109,298.584564 495.847321,296.005219 486.002014,291.495575 
	C484.487549,290.801910 482.856659,290.550629 481.527100,291.536560 
	C477.653503,294.408844 473.330475,293.385101 469.010834,293.666504 
	C460.141388,294.244232 451.409637,292.346527 442.477539,293.286530 
	C434.316681,294.145325 425.975250,293.714417 418.014801,296.050385 
	C404.447021,300.031769 394.480591,308.485413 390.193695,322.061157 
	C387.774567,329.722015 388.089874,337.854645 389.865234,346.029266 
	C393.973297,364.944855 406.526672,373.554962 424.491852,376.548828 
	C434.483704,378.213989 444.502441,377.272278 454.501190,377.418243 
	C466.662811,377.595764 478.832916,377.113770 491.000122,377.014526 
	C503.667938,376.911194 516.331177,377.094086 529.003540,376.589142 
	C539.819702,376.158173 550.666687,376.500000 561.500000,376.500000 
	C576.333313,376.500000 591.167542,376.581268 605.999268,376.428406 
	C608.813110,376.399384 611.873169,378.340607 614.500000,375.750000 
"/>
<path fill="none" opacity="1.000000" stroke="#000000" stroke-linecap="round" stroke-linejoin="round" stroke-width="4.000000"
	d="
M629.500000,623.500000 
	C629.301208,618.844971 625.492920,619.407104 622.520386,618.437561 
	C616.221375,616.383118 609.924011,616.146484 604.039978,619.080139 
	C593.891663,624.139832 593.859802,634.245728 603.458984,640.562317 
	C608.287109,643.739319 613.772583,644.973877 618.992615,647.018799 
	C623.798950,648.901550 628.632019,650.809753 631.004150,655.998108 
	C634.007507,662.567078 631.693481,668.899170 625.015259,673.024719 
	C617.553162,677.634338 602.174316,675.739014 594.970886,670.036804 
	C593.698730,669.029846 594.261475,667.554626 593.500000,666.500000 
"/>
<path fill="none" opacity="1.000000" stroke="#000000" stroke-linecap="round" stroke-linejoin="round" stroke-width="15.000000"
	d="
M385.000000,370.500000 
	C384.470123,374.421295 380.494690,376.192444 379.396606,379.969940 
	C376.382172,390.339630 376.064362,400.539673 378.937134,411.017242 
	C383.126831,426.297729 391.370972,438.368286 406.055237,444.875366 
	C415.970306,449.269043 426.676270,451.344604 437.499298,452.506500 
	C453.501984,454.224396 469.488708,453.654022 485.507050,452.608093 
	C490.166016,452.303894 495.164856,451.297455 499.537537,454.447906 
	C500.271454,454.976685 501.239838,455.230682 502.542511,454.585846 
	C510.564514,450.614868 519.422668,449.394684 528.000000,447.250000 
"/>
<path fill="none" opacity="1.000000" stroke="#000000" stroke-linecap="round" stroke-linejoin="round" stroke-width="10.000000"
	d="
M509.500000,224.500000 
	C511.176086,234.600479 509.616699,244.902771 511.465942,255.006241 
	C512.525452,260.794708 515.646118,264.024628 521.501404,264.481903 
	C532.815735,265.365509 544.067749,266.395386 555.502869,266.274963 
	C569.809692,266.124237 584.235291,267.153778 597.524902,273.951324 
	C613.556763,282.151489 616.631897,294.885376 612.615112,311.028656 
	C611.069702,317.239868 606.348328,322.282776 606.500000,329.000000 
"/>
<path fill="none" opacity="1.000000" stroke="#000000" stroke-linecap="round" stroke-linejoin="round" stroke-width="3.000000"
	d="
M752.500000,722.500000 
	C717.837097,723.446045 683.166626,722.822144 648.500000,723.000000 
"/>
<path fill="none" opacity="1.000000" stroke="#000000" stroke-linecap="round" stroke-linejoin="round" stroke-width="3.000000"
	d="
M377.500000,723.000000 
	C343.833038,722.894958 310.163361,723.337524 276.500000,722.500000 
"/>
<path fill="none" opacity="1.000000" stroke="#000000" stroke-linecap="round" stroke-linejoin="round" stroke-width="17.000000"
	d="
M565.500000,424.500000 
	C565.955444,428.636139 566.943298,432.556244 568.344177,436.554596 
	C572.445740,448.261383 570.804077,459.536224 564.007446,470.004852 
	C560.307251,475.704163 554.289429,477.926208 548.497192,480.493713 
	C543.792236,482.579285 539.028931,484.487946 534.408691,486.819031 
	C530.822144,488.628540 528.473877,491.163147 527.629028,494.532349 
	C525.749939,502.026581 524.401855,509.677734 525.000000,517.500000 
"/>
<path fill="none" opacity="1.000000" stroke="#000000" stroke-linecap="round" stroke-linejoin="round" stroke-width="4.000000"
	d="
M504.500000,726.500000 
	C509.824371,726.046082 515.077942,727.604858 520.539307,726.147278 
	C526.986572,724.426575 530.087708,720.860596 530.037964,713.499756 
	C530.007446,708.974487 527.390442,703.677124 519.993347,703.082764 
	C514.694275,702.656921 509.333344,703.000000 503.500000,703.000000 
	C503.500000,716.162476 503.500000,729.331238 503.500000,742.500000 
"/>
<path fill="none" opacity="1.000000" stroke="#000000" stroke-linecap="round" stroke-linejoin="round" stroke-width="5.000000"
	d="
M585.500000,675.000000 
	C583.169983,674.330017 581.910034,672.827271 580.933289,670.528381 
	C574.395020,655.140503 567.618591,639.853821 561.059509,624.474609 
	C560.218567,622.502808 559.157837,620.747253 557.704712,618.785767 
	C552.632324,624.036438 551.340637,631.179138 548.540649,637.517944 
	C543.562683,648.787415 538.849426,660.173645 533.981445,671.492004 
	C533.302734,673.070190 532.667908,674.834595 530.500000,675.000000 
"/>
<path fill="none" opacity="1.000000" stroke="#000000" stroke-linecap="round" stroke-linejoin="round" stroke-width="4.000000"
	d="
M544.000000,725.000000 
	C549.163879,725.252686 554.322571,724.883484 559.513367,725.351562 
	C563.174316,725.681702 568.939453,718.653687 568.960388,714.499817 
	C568.994202,707.809021 566.197266,704.145630 560.963928,703.199707 
	C555.205505,702.158813 549.166687,701.788086 543.138733,703.013245 
	C542.625122,715.996521 542.027283,728.993225 543.000000,742.000000 
"/>
<path fill="none" opacity="1.000000" stroke="#000000" stroke-linecap="round" stroke-linejoin="round" stroke-width="15.000000"
	d="
M477.000000,224.000000 
	C475.833344,234.166672 474.431854,244.313522 473.571991,254.506073 
	C472.843628,263.139984 475.169800,271.242462 478.933716,279.032013 
	C480.715546,282.719574 482.774109,286.363739 483.500000,290.500000 
"/>
<path fill="none" opacity="1.000000" stroke="#000000" stroke-linecap="round" stroke-linejoin="round" stroke-width="4.000000"
	d="
M254.500000,617.500000 
	C242.919601,617.935242 231.287399,616.570557 219.500000,618.329529 
	C219.500000,636.165894 219.542419,653.833130 219.465057,671.499817 
	C219.449142,675.136353 221.900742,674.480164 224.000046,674.486206 
	C234.499954,674.516296 245.000000,674.500000 255.500000,674.500000 
"/>
<path fill="none" opacity="1.000000" stroke="#000000" stroke-linecap="round" stroke-linejoin="round" stroke-width="4.000000"
	d="
M723.500000,650.500000 
	C725.170227,647.535156 728.591736,646.937805 731.104614,645.146790 
	C737.074829,640.891357 737.298401,634.823547 736.274109,629.039978 
	C735.268066,623.359497 729.036804,619.237000 723.510315,618.429260 
	C715.768372,617.297729 708.123596,616.729187 700.485413,618.949829 
	C700.267334,619.013184 699.833313,618.333374 699.500000,618.000000 
"/>
<path fill="none" opacity="1.000000" stroke="#000000" stroke-linecap="round" stroke-linejoin="round" stroke-width="7.000000"
	d="
M501.000000,455.500000 
	C500.165527,462.233795 495.312256,467.436707 493.984650,473.996887 
	C492.446930,481.595428 491.638245,489.232330 491.973297,497.001160 
	C492.267761,503.828979 492.333344,510.666656 492.500000,517.500000 
"/>
<path fill="none" opacity="1.000000" stroke="#000000" stroke-linecap="round" stroke-linejoin="round" stroke-width="6.000000"
	d="
M663.500000,619.000000 
	C663.500000,637.166687 663.500000,655.333313 663.500000,673.500000 
"/>
<path fill="none" opacity="1.000000" stroke="#000000" stroke-linecap="round" stroke-linejoin="round" stroke-width="5.000000"
	d="
M316.500000,617.500000 
	C317.901245,621.833313 316.398865,626.165039 316.483795,630.500305 
	C316.699280,641.499390 316.782410,652.501160 317.037537,663.499146 
	C317.097595,666.090027 316.605499,668.458618 315.500000,670.750000 
"/>
<path fill="none" opacity="1.000000" stroke="#000000" stroke-linecap="round" stroke-linejoin="round" stroke-width="5.000000"
	d="
M272.000000,621.500000 
	C270.763458,623.349487 271.000519,625.444946 271.000397,627.500000 
	C270.999664,643.000000 271.000000,658.500000 271.000000,674.000000 
"/>
<path fill="none" opacity="1.000000" stroke="#000000" stroke-linecap="round" stroke-linejoin="round" stroke-width="5.000000"
	d="
M271.500000,617.500000 
	C271.344971,618.662781 271.672363,619.724304 272.511627,620.487183 
	C284.184174,631.098022 292.018555,644.895996 302.460693,656.535278 
	C306.795532,661.367065 309.713562,667.451416 315.462158,671.060303 
	C316.076508,671.445923 316.166656,672.666687 316.500000,673.500000 
"/>
<path fill="none" opacity="1.000000" stroke="#000000" stroke-linecap="round" stroke-linejoin="round" stroke-width="4.000000"
	d="
M454.500000,702.500000 
	C454.500000,715.833313 454.500000,729.166687 454.500000,742.500000 
"/>
<path fill="none" opacity="1.000000" stroke="#000000" stroke-linecap="round" stroke-linejoin="round" stroke-width="4.000000"
	d="
M470.500000,702.500000 
	C470.500000,715.833313 470.500000,729.166687 470.500000,742.500000 
"/>
<path fill="none" opacity="1.000000" stroke="#000000" stroke-linecap="round" stroke-linejoin="round" stroke-width="4.000000"
	d="
M573.500000,655.500000 
	C572.666687,655.833313 571.826233,656.472473 571.001099,656.453369 
	C561.168335,656.225525 551.317322,657.112793 541.500000,656.000000 
"/>
<path fill="none" opacity="1.000000" stroke="#000000" stroke-linecap="round" stroke-linejoin="round" stroke-width="6.000000"
	d="
M700.000000,619.500000 
	C699.119080,637.663025 699.460815,655.831604 699.750000,674.000000 
"/>
<path fill="none" opacity="1.000000" stroke="#000000" stroke-linecap="round" stroke-linejoin="round" stroke-width="4.000000"
	d="
M220.500000,644.500000 
	C230.166672,644.500000 239.833328,644.500000 249.500000,644.500000 
"/>
<path fill="none" opacity="1.000000" stroke="#000000" stroke-linecap="round" stroke-linejoin="round" stroke-width="5.000000"
	d="
M700.500000,649.500000 
	C707.333313,649.500000 714.988953,647.546509 720.793762,649.989929 
	C728.205383,653.109741 730.419312,662.437744 735.016479,668.988464 
	C736.734192,671.436096 737.694336,674.775574 741.500000,675.000000 
"/>
<path fill="none" opacity="1.000000" stroke="#000000" stroke-linecap="round" stroke-linejoin="round" stroke-width="4.000000"
	d="
M686.000000,618.000000 
	C678.983765,617.485291 671.967041,618.008423 664.997070,618.053833 
	C659.065491,618.092407 652.996948,618.296021 646.999268,618.016235 
	C644.837280,617.915405 642.666687,618.000000 640.500000,618.000000 
"/>
<path fill="none" opacity="1.000000" stroke="#000000" stroke-linecap="round" stroke-linejoin="round" stroke-width="4.000000"
	d="
M560.000000,726.000000 
	C562.666687,730.500000 565.309692,735.014282 568.011658,739.492981 
	C569.083923,741.270325 570.126770,743.149048 572.500000,743.500000 
"/>
<path fill="none" opacity="1.000000" stroke="#000000" stroke-linecap="round" stroke-linejoin="round" stroke-width="6.000000"
	d="
M451.000000,436.500000 
	C452.604950,441.753845 451.796539,447.158539 452.000000,452.500000 
"/>
<path fill="none" opacity="1.000000" stroke="#000000" stroke-linecap="round" stroke-linejoin="round" stroke-width="8.000000"
	d="
M599.500000,333.500000 
	C599.500000,338.833344 599.500000,344.166656 599.500000,349.500000 
"/>
<path fill="none" opacity="1.000000" stroke="#000000" stroke-linecap="round" stroke-linejoin="round" stroke-width="7.000000"
	d="
M433.000031,295.000000 
	C432.833344,299.833344 432.666687,304.666656 432.500031,309.500000 
"/>
<path fill="none" opacity="1.000000" stroke="#000000" stroke-linecap="round" stroke-linejoin="round" stroke-width="3.000000"
	d="
M513.000000,565.000000 
	C513.000000,569.500000 513.000000,574.000000 513.000000,578.500000 
"/>
<path fill="none" opacity="1.000000" stroke="#000000" stroke-linecap="round" stroke-linejoin="round" stroke-width="6.000000"
	d="
M500.500000,378.500000 
	C500.500000,382.833344 500.500000,387.166656 500.500000,391.500000 
"/>
<path fill="none" opacity="1.000000" stroke="#000000" stroke-linecap="round" stroke-linejoin="round" stroke-width="6.000000"
	d="
M569.500000,378.000000 
	C569.500000,382.166656 569.500000,386.333344 569.500000,390.500000 
"/>
<path fill="none" opacity="1.000000" stroke="#000000" stroke-linecap="round" stroke-linejoin="round" stroke-width="6.000000"
	d="
M594.500000,407.500000 
	C594.500000,412.333344 594.500000,417.166656 594.500000,422.000000 
"/>
<path fill="none" opacity="1.000000" stroke="#000000" stroke-linecap="round" stroke-linejoin="round" stroke-width="5.000000"
	d="
M719.500000,477.500000 
	C719.500000,480.666656 719.500000,483.833344 719.500000,487.000000 
"/>
<path fill="none" opacity="1.000000" stroke="#000000" stroke-linecap="round" stroke-linejoin="round" stroke-width="7.000000"
	d="
M439.500000,360.500000 
	C437.904480,365.754456 438.545380,371.148682 438.500000,376.500000 
"/>
<path fill="none" opacity="1.000000" stroke="#000000" stroke-linecap="round" stroke-linejoin="round" stroke-width="2.000000"
	d="
M511.500031,224.500000 
	C511.333374,225.666672 511.166687,226.833344 511.000031,228.000000 
"/>
<path fill="none" opacity="1.000000" stroke="#000000" stroke-linecap="round" stroke-linejoin="round" stroke-width="5.000000"
	d="
M777.500000,617.000000 
	C767.419373,617.970581 760.014648,623.055908 755.544189,632.022034 
	C748.132812,646.886353 752.470154,670.756042 774.547058,675.269897 
	C790.503845,678.532532 804.676880,669.179565 807.746826,652.545532 
	C810.302185,638.700256 803.641113,625.150635 794.009521,619.982239 
	C788.961609,617.273560 783.533081,616.934753 778.000000,617.000000 
"/>
<path fill="none" opacity="1.000000" stroke="#000000" stroke-linecap="round" stroke-linejoin="round" stroke-width="6.000000"
	d="
M341.000000,617.500000 
	C338.659943,618.087341 337.355347,618.988220 337.396271,622.001404 
	C337.615845,638.165100 337.530273,654.333435 337.461914,670.499817 
	C337.453308,672.534729 337.570251,674.541077 339.997192,674.435364 
	C349.526886,674.020264 359.227844,676.045471 368.517487,672.040588 
	C379.588013,667.267822 386.618317,657.696716 385.379303,643.510559 
	C384.169769,629.661621 376.567078,621.778870 363.974640,618.600464 
	C356.656708,616.753418 349.012939,617.542480 341.500000,617.500000 
"/>
<path fill="none" opacity="1.000000" stroke="#000000" stroke-linecap="round" stroke-linejoin="round" stroke-width="4.000000"
	d="
M409.000000,702.500000 
	C406.068146,703.892029 407.602509,706.508118 407.575195,708.501038 
	C407.420013,719.832214 407.500000,731.166687 407.500000,742.899780 
	C415.773834,742.716858 424.243286,744.503540 431.987762,739.979065 
	C439.548889,735.561646 443.199982,726.043213 441.000000,717.000000 
	C439.145569,709.377197 432.157440,703.963989 423.507721,702.935120 
	C418.824677,702.378113 414.166931,702.659302 409.500000,702.500000 
"/>
<path fill="none" opacity="1.000000" stroke="#000000" stroke-linecap="round" stroke-linejoin="round" stroke-width="5.000000"
	d="
M425.500000,617.000000 
	C414.414490,618.339966 406.578522,623.871155 402.479614,634.492126 
	C396.501678,649.982117 403.898712,668.779358 417.434448,673.681030 
	C434.813965,679.974548 452.986389,670.173157 455.770905,652.542786 
	C458.008911,638.372498 451.424194,625.089844 442.008972,619.983459 
	C436.967743,617.249268 431.558350,616.799927 426.000000,617.000000 
"/>
<path fill="none" opacity="1.000000" stroke="#000000" stroke-linecap="round" stroke-linejoin="round" stroke-width="3.000000"
	d="
M596.500000,702.000000 
	C585.476379,704.387512 581.398071,712.522217 580.065552,722.508728 
	C578.721863,732.579468 589.405518,744.008057 600.498596,743.880371 
	C612.482300,743.742493 620.258972,736.015564 619.960388,725.001099 
	C619.869934,721.662048 619.977173,718.386780 619.180054,714.958130 
	C617.368347,707.165771 608.675232,701.488525 600.999207,701.987732 
	C599.671509,702.074097 598.333313,702.000000 597.000000,702.000000 
"/>
</svg>