<?xml version="1.0" standalone="no"?>
<!DOCTYPE svg PUBLIC "-//W3C//DTD SVG 20010904//EN"
 "http://www.w3.org/TR/2001/REC-SVG-20010904/DTD/svg10.dtd">
<svg version="1.0" xmlns="http://www.w3.org/2000/svg"
 width="1024.000000pt" height="942.000000pt" viewBox="0 0 1024.000000 942.000000"
 preserveAspectRatio="xMidYMid meet">

<g transform="translate(0.000000,942.000000) scale(0.100000,-0.100000)"
fill="#000000" stroke="none">
<path d="M4741 7202 c-5 -9 -24 -69 -42 -132 -31 -103 -34 -128 -34 -240 0
-113 3 -131 28 -191 15 -36 27 -68 27 -72 0 -4 -64 -4 -142 -1 -243 10 -438
-23 -556 -93 -26 -15 -49 -28 -52 -28 -38 -5 -118 -116 -151 -210 -27 -77 -29
-216 -5 -300 40 -136 119 -236 229 -289 87 -42 183 -57 373 -57 l172 0 12 -45
c11 -37 17 -44 34 -42 14 2 24 15 31 42 7 23 20 43 31 47 10 4 72 8 136 8
l117 1 13 -47 c10 -37 18 -48 33 -48 15 0 24 12 34 48 l15 47 128 0 c70 0 131
0 135 1 4 0 13 -20 20 -45 10 -34 19 -46 33 -46 14 0 21 9 26 35 11 60 23 65
143 65 l107 0 15 -47 c11 -36 20 -48 34 -48 15 0 23 11 31 45 l11 45 202 5
c186 5 204 7 217 24 22 31 17 54 -16 71 -25 13 -136 15 -874 15 -552 0 -847 3
-851 10 -3 6 -1 10 5 10 11 0 9 15 -11 68 -14 35 -46 12 -56 -41 l-9 -42 -45
3 c-96 6 -210 57 -245 109 -10 15 -19 30 -19 33 0 3 -10 21 -22 40 -54 88 -58
247 -8 339 53 96 150 163 249 173 27 3 31 -1 41 -34 21 -75 51 -74 70 3 6 22
13 40 18 40 4 -1 52 -1 107 -1 l100 0 11 -44 c11 -43 34 -65 50 -49 4 4 14 26
21 47 l13 39 85 -2 c101 -3 270 -18 277 -25 3 -2 12 -19 21 -38 24 -47 48 -48
67 -3 14 34 17 37 47 32 185 -33 575 -5 634 44 30 25 38 24 -321 38 -387 15
-501 39 -581 123 -21 23 -33 38 -26 34 7 -4 1 9 -12 29 -58 85 -69 135 -77
350 -3 110 -7 201 -8 201 -10 12 -33 10 -40 -4z"/>
<path d="M5072 7149 c-23 -95 -33 -208 -23 -265 13 -70 40 -107 92 -128 55
-22 215 -35 419 -34 91 0 194 -5 229 -11 173 -33 261 -129 261 -285 0 -39 -8
-77 -20 -105 -23 -51 -24 -55 -7 -45 7 4 9 3 4 -2 -5 -5 -14 -9 -20 -9 -7 0
-18 -12 -25 -28 -7 -15 -23 -34 -35 -41 -22 -14 -117 -48 -172 -61 -16 -5
-348 -7 -738 -6 -738 3 -765 1 -768 -39 -2 -27 2 -45 14 -57 11 -11 191 -21
389 -23 l78 0 11 -44 c18 -70 46 -70 67 0 l12 41 119 8 c66 3 129 4 140 0 13
-4 25 -21 33 -48 20 -69 52 -72 63 -6 5 30 13 43 32 50 29 11 193 12 209 1 7
-4 18 -27 25 -51 21 -71 51 -67 64 10 5 27 13 39 28 43 12 3 104 6 204 6 l181
0 17 -50 c9 -27 22 -50 30 -50 7 0 21 24 32 53 l19 52 78 -2 c138 -3 230 -64
294 -193 24 -49 27 -66 27 -155 0 -89 -3 -106 -27 -156 -29 -58 -97 -139 -117
-139 -6 0 -16 11 -22 24 -17 36 -48 41 -55 8 -3 -15 -7 -33 -10 -39 -2 -7 1
-13 6 -13 6 0 10 -4 10 -9 0 -15 -80 -41 -159 -50 -80 -10 -105 -6 -97 16 10
24 -5 61 -25 66 -23 6 -43 -33 -34 -64 10 -30 -30 -32 -258 -14 -155 13 -371
20 -802 24 -575 6 -591 7 -636 27 -26 12 -50 27 -53 33 -11 17 -26 13 -26 -6
0 -36 40 -84 86 -105 89 -39 208 -50 471 -46 l242 5 6 -38 c7 -40 27 -65 45
-54 5 3 15 26 21 50 11 42 13 44 55 51 78 11 304 -2 356 -21 115 -41 192 -154
193 -280 0 -67 -8 -94 -54 -185 -9 -18 -232 -130 -245 -122 -5 3 -6 0 -3 -5 4
-6 -4 -14 -17 -17 -32 -8 -63 -52 -75 -106 -9 -40 1 -198 15 -242 9 -30 23
-20 34 25 18 72 60 174 79 191 10 9 55 30 100 46 184 68 247 113 299 219 36
73 37 78 36 180 0 74 -6 119 -17 150 -10 24 -16 46 -14 48 2 1 41 -2 86 -8
107 -14 328 -6 406 15 252 69 375 237 375 511 0 115 -11 175 -50 268 -31 75
-97 172 -117 172 -6 0 -15 4 -20 9 -5 5 -2 6 6 1 9 -5 12 -4 7 3 -4 7 -16 17
-28 23 -15 8 -19 8 -13 0 3 -6 -14 2 -40 18 -28 18 -73 34 -115 42 -38 6 -73
15 -79 18 -7 4 -2 24 13 54 36 69 50 172 36 244 -11 51 -48 142 -50 120 0 -5
-12 6 -27 23 -87 104 -269 151 -679 175 -132 8 -251 18 -264 23 -13 5 -24 17
-26 28 -6 57 -46 283 -54 304 -7 21 -9 22 -10 5 -1 -20 -2 -20 -9 -1 -6 16
-10 11 -19 -25z"/>
<path d="M3833 5729 c-5 -5 -25 -18 -44 -27 -42 -21 -84 -101 -100 -187 -15
-79 4 -215 41 -306 73 -179 162 -258 367 -324 152 -50 332 -69 563 -61 96 3
193 9 214 13 38 6 39 5 32 -18 -33 -104 -37 -133 -37 -235 1 -163 30 -350 51
-328 4 5 13 72 20 148 24 274 65 365 206 448 139 82 139 82 142 110 l3 26
-143 -2 c-79 -2 -248 -7 -375 -11 l-233 -8 0 39 c0 44 -7 58 -32 62 -17 3 -27
-17 -32 -66 -3 -26 -5 -27 -57 -24 -90 5 -248 41 -315 72 -66 30 -147 88 -139
100 7 11 -71 111 -80 102 -5 -4 -5 -2 -2 4 3 5 -6 41 -20 80 -32 86 -41 214
-23 319 13 77 12 93 -7 74z"/>
<path d="M2840 4953 c17 -32 51 -90 75 -129 l45 -71 202 -6 c499 -15 984 -161
1448 -436 104 -62 267 -176 325 -227 l30 -26 -40 22 c-22 13 -62 40 -90 61
-27 20 -77 50 -110 66 -33 16 -103 53 -155 81 -292 157 -718 295 -1072 347
-122 17 -444 35 -534 30 -267 -18 -394 -30 -394 -36 0 -13 150 -189 174 -204
18 -12 45 -11 191 7 254 32 678 32 901 0 88 -12 205 -33 260 -46 283 -69 615
-206 884 -366 l85 -50 -115 112 c-132 129 -176 168 -189 168 -6 0 -15 8 -20
18 -6 9 -11 14 -11 10 0 -4 -21 13 -46 38 -26 24 -49 42 -52 40 -4 -5 -84 48
-167 109 -69 52 -344 200 -482 261 -335 148 -623 225 -963 259 -85 8 -168 18
-183 21 l-28 6 31 -59z"/>
<path d="M7270 4993 c-347 -42 -467 -68 -739 -160 -260 -88 -531 -222 -789
-388 -37 -24 -76 -52 -86 -62 -11 -10 -15 -12 -11 -4 5 9 4 12 -3 7 -7 -4 -12
-13 -12 -21 0 -12 -14 -22 -34 -23 -5 0 -12 -6 -17 -14 -5 -7 -13 -13 -18 -13
-6 0 -16 -7 -23 -16 -7 -9 -40 -36 -74 -62 -68 -51 -264 -235 -264 -247 0 -5
42 17 93 47 280 169 690 323 1004 377 339 59 748 59 1140 0 43 -6 43 -6 109
62 56 59 124 144 124 156 0 2 -15 4 -32 5 -18 1 -78 7 -133 14 -125 15 -465
16 -605 0 -339 -38 -626 -107 -910 -218 -194 -77 -478 -218 -592 -296 -109
-74 -118 -80 -118 -74 0 3 42 36 93 75 494 373 1101 588 1719 609 l188 6 59
96 c32 53 66 110 75 128 l16 32 -28 -2 c-15 -1 -74 -7 -132 -14z"/>
<path d="M2990 4335 c-140 -14 -234 -29 -403 -65 -55 -11 -108 -18 -119 -14
-14 4 -18 2 -14 -5 4 -6 0 -11 -11 -11 -29 -1 -157 -48 -161 -59 -2 -6 -13
-11 -24 -11 -11 0 -18 -4 -16 -9 4 -12 112 -100 172 -140 l48 -33 192 26 c501
70 902 74 1361 15 446 -57 790 -170 1028 -335 l77 -54 79 55 c152 106 372 198
623 259 535 130 1174 152 1767 60 188 -29 186 -29 228 -3 53 33 144 102 171
132 l23 24 -32 7 c-18 3 -29 9 -25 13 3 4 -13 12 -36 19 -24 6 -63 18 -88 27
-60 21 -346 74 -495 93 -271 34 -732 28 -985 -12 -183 -29 -457 -95 -636 -153
-158 -51 -347 -124 -394 -151 -8 -5 -56 -32 -106 -59 l-91 -50 -174 88 c-304
155 -626 255 -1044 325 -216 37 -648 46 -915 21z"/>
<path d="M4197 3270 c-85 -22 -160 -81 -204 -162 -27 -49 -26 -227 2 -283 32
-66 105 -131 166 -149 186 -55 355 25 405 193 32 106 5 233 -65 314 -65 74
-201 113 -304 87z m177 -44 c105 -44 167 -179 145 -316 -12 -74 -26 -103 -71
-149 -47 -48 -102 -71 -173 -71 -102 0 -186 55 -229 150 -24 53 -28 170 -9
236 17 53 72 116 125 143 51 25 160 29 212 7z"/>
<path d="M4899 3266 c-100 -27 -172 -91 -205 -183 -7 -21 -13 -75 -14 -120 0
-73 3 -88 33 -144 59 -115 160 -166 313 -156 58 3 95 11 130 29 l49 24 0 120
c0 112 -1 119 -20 119 -19 0 -20 -8 -23 -112 l-3 -112 -55 -20 c-231 -87 -434
119 -357 360 22 67 90 139 149 157 72 21 174 16 230 -13 57 -29 64 -30 64 -10
0 21 -43 46 -108 61 -69 17 -122 17 -183 0z"/>
<path d="M6063 3270 c-88 -21 -138 -81 -130 -159 7 -66 51 -104 177 -151 125
-48 148 -62 166 -105 26 -62 -3 -122 -72 -151 -68 -28 -183 -10 -248 40 -31
23 -35 24 -41 8 -8 -22 35 -57 99 -78 35 -12 72 -15 130 -12 101 5 145 28 176
93 45 92 -5 180 -125 224 -33 12 -78 28 -100 36 -94 35 -139 112 -100 171 38
58 164 73 249 30 41 -21 48 -22 53 -9 18 46 -135 87 -234 63z"/>
<path d="M7717 3270 c-197 -50 -291 -276 -191 -461 31 -56 65 -88 128 -122 34
-18 57 -22 141 -22 92 0 104 2 154 30 106 59 156 156 149 290 -7 123 -61 211
-162 260 -59 29 -158 40 -219 25z m190 -51 c82 -39 134 -132 136 -239 1 -91
-18 -152 -66 -207 -53 -59 -105 -83 -182 -83 -102 0 -184 54 -228 150 -31 67
-30 198 2 263 23 47 86 108 132 126 45 18 159 13 206 -10z"/>
<path d="M2160 2970 l0 -300 200 0 c171 0 200 2 200 15 0 13 -26 15 -175 15
l-175 0 0 135 0 135 145 0 c122 0 145 2 145 15 0 13 -23 15 -145 15 l-146 0 3
118 3 117 168 3 c139 2 167 5 167 17 0 13 -30 15 -195 15 l-195 0 0 -300z"/>
<path d="M2687 3263 c-4 -3 -7 -138 -7 -300 0 -286 1 -293 20 -293 19 0 20 8
22 261 l3 260 152 -193 c84 -106 176 -223 205 -260 37 -47 60 -67 76 -68 l22
0 -2 297 c-3 274 -5 298 -21 301 -16 3 -17 -15 -17 -253 0 -237 -1 -256 -16
-244 -9 8 -73 86 -142 174 -239 305 -273 341 -295 318z"/>
<path d="M3347 3263 c-4 -3 -7 -139 -7 -301 l0 -294 153 4 c173 4 220 18 290
86 67 64 82 103 82 212 0 109 -15 149 -82 211 -50 49 -87 66 -164 78 -71 12
-262 15 -272 4z m303 -44 c173 -52 225 -324 85 -447 -60 -53 -125 -72 -246
-72 l-99 0 0 263 c0 145 3 267 8 271 11 12 200 0 252 -15z"/>
<path d="M5420 2979 c-69 -160 -126 -295 -128 -300 -2 -5 7 -9 20 -9 21 0 28
11 57 90 l33 90 158 0 158 0 38 -90 c36 -84 40 -90 67 -90 20 0 27 4 24 13
-249 567 -256 582 -279 585 -21 2 -33 -22 -148 -289z m214 70 c36 -85 66 -158
66 -162 0 -4 -61 -7 -135 -7 -96 0 -135 3 -135 12 0 6 25 73 56 147 60 145 74
175 78 169 2 -1 33 -73 70 -159z"/>
<path d="M6390 3254 c0 -11 23 -14 105 -14 l105 0 0 -285 0 -285 25 0 25 0 0
280 c0 154 3 280 8 281 4 0 52 1 107 2 81 2 100 5 100 17 0 13 -34 15 -237 16
-194 1 -238 -1 -238 -12z"/>
<path d="M6967 3262 c-3 -4 -5 -139 -6 -299 l-2 -293 25 0 26 0 0 125 0 125
94 0 94 0 79 -125 c69 -111 81 -125 106 -125 15 0 27 3 27 8 0 4 -36 61 -81
127 -86 130 -85 121 -20 157 47 26 71 73 71 140 0 50 -4 62 -32 94 -50 57 -84
67 -240 70 -75 2 -139 0 -141 -4z m258 -33 c24 -6 55 -24 72 -41 24 -25 28
-37 28 -88 0 -111 -55 -150 -212 -150 l-103 0 0 138 c0 76 3 142 7 145 10 11
160 8 208 -4z"/>
<path d="M4050 2206 l0 -216 93 0 c103 0 149 10 198 43 97 64 107 241 17 324
-41 38 -97 55 -205 61 l-103 5 0 -217z m236 165 c61 -28 88 -72 92 -153 5 -81
-8 -117 -54 -158 -42 -37 -97 -52 -177 -48 l-62 3 0 187 0 188 80 0 c56 0 92
-6 121 -19z"/>
<path d="M4520 2205 c0 -184 2 -215 15 -215 13 0 15 31 15 215 0 184 -2 215
-15 215 -13 0 -15 -31 -15 -215z"/>
<path d="M4680 2205 c0 -184 2 -215 15 -215 13 0 15 31 15 215 0 184 -2 215
-15 215 -13 0 -15 -31 -15 -215z"/>
<path d="M5010 2207 c0 -186 2 -217 15 -217 12 0 15 15 15 79 l0 78 88 5 c53
3 100 12 120 22 82 42 83 179 1 221 -19 10 -70 18 -135 22 l-104 6 0 -216z
m236 150 c33 -38 33 -105 1 -142 -27 -32 -89 -46 -159 -38 l-48 6 0 104 0 105
91 -4 c85 -3 92 -5 115 -31z"/>
<path d="M5400 2206 c0 -212 0 -216 21 -216 19 0 20 5 17 88 l-3 87 66 3 67 3
53 -88 c38 -62 61 -89 76 -91 20 -3 16 7 -34 88 -50 81 -54 93 -40 102 68 37
91 96 64 160 -23 54 -63 70 -184 76 l-103 5 0 -217z m213 173 c68 -31 58 -153
-14 -178 -36 -12 -155 -15 -162 -3 -3 4 -3 49 0 100 l6 92 73 0 c40 0 84 -5
97 -11z"/>
<path d="M5891 2398 c-77 -38 -133 -150 -116 -230 38 -172 224 -244 364 -140
92 68 98 257 9 339 -60 56 -178 70 -257 31z m189 -20 c61 -31 90 -88 90 -175
0 -107 -42 -171 -128 -193 -35 -9 -54 -8 -96 4 -85 25 -126 86 -126 189 0 155
128 241 260 175z"/>
<path d="M2835 2199 c142 -11 935 -11 935 1 0 7 -176 9 -512 8 -307 -1 -477
-4 -423 -9z"/>
<path d="M6470 2200 c0 -12 887 -12 990 0 36 4 -172 8 -462 8 -347 1 -528 -1
-528 -8z"/>
</g>
</svg>
