<?xml version="1.0" standalone="no"?>
<!DOCTYPE svg PUBLIC "-//W3C//DTD SVG 20010904//EN"
 "http://www.w3.org/TR/2001/REC-SVG-20010904/DTD/svg10.dtd">
<svg version="1.0" xmlns="http://www.w3.org/2000/svg"
 width="580.000000pt" height="398.000000pt" viewBox="0 0 580.000000 398.000000"
 preserveAspectRatio="xMidYMid meet">

<g transform="translate(0.000000,398.000000) scale(0.100000,-0.100000)"
fill="#000000" stroke="none">
<path d="M2531 3692 c-5 -9 -24 -69 -42 -132 -31 -103 -34 -128 -34 -240 0
-113 3 -131 28 -191 15 -36 27 -68 27 -72 0 -4 -64 -4 -142 -1 -243 10 -438
-23 -556 -93 -26 -15 -49 -28 -52 -28 -38 -5 -118 -116 -151 -210 -27 -77 -29
-216 -5 -300 40 -136 119 -236 229 -289 86 -42 183 -57 373 -57 l172 0 12 -45
c11 -37 17 -44 34 -42 14 2 24 15 31 42 7 23 20 43 31 47 10 4 72 8 136 8
l117 1 13 -47 c10 -37 18 -48 33 -48 15 0 24 12 34 48 l15 47 128 0 c70 0 131
0 135 1 4 0 13 -20 20 -45 10 -34 19 -46 33 -46 14 0 21 9 26 35 11 60 23 65
143 65 l107 0 15 -47 c11 -36 20 -48 34 -48 15 0 23 11 31 45 l11 45 202 5
c186 5 204 7 217 24 22 31 17 54 -16 71 -25 13 -136 15 -874 15 -552 0 -847 3
-851 10 -3 6 -1 10 5 10 11 0 9 15 -11 68 -14 35 -47 12 -55 -39 -4 -21 -10
-42 -15 -45 -13 -8 -107 12 -173 36 -53 20 -139 90 -133 108 1 4 -8 23 -20 42
-54 88 -58 247 -8 339 53 96 150 163 249 173 27 3 31 -1 41 -34 21 -75 51 -74
70 3 6 22 13 40 18 40 4 -1 52 -1 107 -1 l100 0 11 -44 c11 -43 34 -65 50 -49
4 4 14 26 21 47 l13 39 85 -2 c101 -3 270 -18 277 -25 3 -2 12 -19 21 -38 24
-47 48 -48 67 -3 14 34 17 37 47 32 185 -33 575 -5 634 44 30 25 38 24 -321
38 -387 15 -501 39 -581 123 -21 23 -33 38 -26 34 7 -4 1 9 -12 29 -58 85 -69
135 -77 350 -3 110 -7 201 -8 201 -10 12 -33 10 -40 -4z"/>
<path d="M2862 3639 c-23 -95 -33 -208 -23 -265 13 -70 40 -107 92 -128 55
-22 215 -35 419 -34 248 1 365 -30 430 -112 62 -78 79 -202 40 -289 -23 -51
-24 -55 -7 -45 7 4 9 3 4 -2 -5 -5 -14 -9 -20 -9 -7 0 -18 -12 -25 -28 -7 -15
-23 -34 -35 -41 -22 -14 -117 -48 -172 -61 -16 -5 -348 -7 -738 -6 -738 3
-765 1 -768 -39 -2 -27 2 -45 14 -57 11 -11 191 -21 389 -23 l78 0 11 -44 c18
-70 46 -70 67 0 l12 41 119 8 c66 3 129 4 140 0 13 -4 25 -21 33 -48 20 -69
52 -72 63 -6 5 30 13 43 32 50 29 11 193 12 209 1 7 -4 18 -27 25 -51 21 -71
51 -67 64 10 5 27 13 39 28 43 12 3 104 6 204 6 l181 0 17 -50 c9 -27 22 -50
30 -50 7 0 21 24 32 53 l19 52 78 -2 c138 -3 230 -64 294 -193 24 -49 27 -66
27 -155 0 -89 -3 -106 -27 -156 -29 -58 -97 -139 -117 -139 -6 0 -16 11 -22
24 -17 36 -48 41 -55 8 -3 -15 -7 -33 -10 -40 -2 -6 1 -12 6 -12 6 0 10 -4 10
-9 0 -15 -80 -41 -159 -50 -80 -10 -105 -6 -97 16 10 24 -5 61 -25 66 -23 6
-43 -33 -34 -64 10 -30 -30 -32 -258 -14 -155 13 -371 20 -802 24 -575 6 -591
7 -636 27 -26 12 -50 27 -53 33 -11 17 -26 13 -26 -6 0 -36 40 -84 86 -105 89
-39 208 -50 471 -46 l242 5 6 -38 c7 -40 27 -65 45 -54 5 3 15 26 21 50 11 42
13 44 55 51 78 11 304 -2 356 -21 115 -41 192 -154 193 -280 0 -67 -8 -94 -54
-185 -9 -18 -232 -130 -245 -122 -5 3 -6 0 -3 -5 4 -6 -4 -14 -17 -17 -32 -8
-63 -52 -75 -106 -9 -40 1 -198 15 -242 9 -30 23 -20 34 25 18 72 60 174 79
191 10 9 55 30 100 46 184 68 247 113 299 219 36 73 37 78 36 180 0 74 -6 119
-17 150 -10 24 -16 46 -14 48 2 1 41 -2 86 -8 107 -14 328 -6 406 15 252 69
375 237 375 511 0 115 -11 175 -50 268 -31 75 -97 172 -117 172 -6 0 -15 4
-20 9 -5 5 -2 6 6 1 9 -5 12 -4 7 3 -4 7 -16 17 -28 23 -15 8 -19 8 -13 0 3
-6 -14 2 -40 18 -28 18 -73 34 -115 42 -38 6 -73 15 -79 18 -7 4 -2 24 13 54
36 69 50 172 36 244 -11 51 -48 142 -50 120 0 -5 -12 6 -27 23 -87 104 -269
151 -679 175 -132 8 -251 18 -264 23 -13 5 -24 17 -26 28 -6 57 -46 283 -54
304 -7 21 -9 22 -10 5 -1 -20 -2 -20 -9 -1 -6 16 -10 11 -19 -25z"/>
<path d="M1623 2219 c-5 -5 -25 -18 -44 -27 -42 -21 -84 -101 -100 -187 -15
-79 4 -215 41 -306 73 -179 162 -258 367 -324 152 -50 332 -69 563 -61 96 3
193 9 214 13 38 6 39 5 32 -18 -33 -104 -37 -133 -37 -235 1 -163 30 -350 51
-328 4 5 13 72 20 148 24 274 65 365 206 448 139 82 139 82 142 110 l3 26
-143 -2 c-79 -2 -248 -7 -375 -11 l-233 -8 0 39 c0 44 -7 58 -32 62 -17 3 -27
-17 -32 -66 -3 -26 -5 -27 -57 -24 -90 5 -248 41 -315 72 -66 30 -147 88 -139
100 7 11 -71 111 -80 102 -5 -4 -5 -2 -2 4 3 5 -6 41 -20 80 -32 86 -41 214
-23 319 13 77 12 93 -7 74z"/>
<path d="M630 1443 c17 -32 51 -90 75 -129 l45 -71 202 -6 c499 -15 984 -161
1448 -436 104 -62 267 -176 325 -227 l30 -26 -40 22 c-22 13 -62 40 -90 61
-27 20 -77 50 -110 66 -33 16 -103 53 -155 81 -292 157 -718 295 -1072 347
-122 17 -444 35 -534 30 -267 -18 -394 -30 -394 -36 0 -13 150 -189 174 -204
18 -12 45 -11 191 7 254 32 678 32 901 0 88 -12 205 -33 260 -46 283 -69 615
-206 884 -366 l85 -50 -115 112 c-132 129 -176 168 -189 168 -6 0 -15 8 -20
18 -6 9 -11 14 -11 10 0 -4 -21 13 -46 38 -26 24 -49 42 -52 40 -4 -5 -84 48
-167 109 -69 52 -344 200 -482 261 -335 148 -623 225 -963 259 -85 8 -168 18
-183 21 l-28 6 31 -59z"/>
<path d="M5060 1483 c-347 -42 -467 -68 -739 -160 -260 -88 -531 -222 -789
-388 -37 -24 -76 -52 -86 -62 -11 -10 -15 -12 -11 -4 5 9 4 12 -3 7 -7 -4 -12
-13 -12 -21 0 -12 -14 -22 -34 -23 -5 0 -12 -6 -17 -14 -5 -7 -13 -13 -18 -13
-6 0 -16 -7 -23 -16 -7 -9 -40 -36 -74 -62 -68 -51 -264 -235 -264 -247 0 -5
42 17 93 47 280 169 690 323 1004 377 339 59 748 59 1140 0 43 -6 43 -6 109
62 56 59 124 144 124 156 0 2 -15 4 -32 5 -18 1 -78 7 -133 14 -125 15 -465
16 -605 0 -339 -38 -626 -107 -910 -218 -194 -77 -478 -218 -592 -296 -109
-74 -118 -80 -118 -74 0 3 42 36 93 75 494 373 1101 588 1719 609 l188 6 59
96 c32 53 66 110 75 128 l16 32 -28 -2 c-15 -1 -74 -7 -132 -14z"/>
<path d="M780 825 c-140 -14 -234 -29 -403 -65 -55 -11 -108 -18 -119 -14 -14
4 -18 2 -14 -5 4 -6 0 -11 -11 -11 -29 -1 -157 -48 -161 -59 -2 -6 -13 -11
-24 -11 -11 0 -18 -4 -16 -9 4 -12 112 -100 172 -140 l48 -33 192 26 c501 70
902 74 1361 15 446 -57 790 -170 1028 -335 l77 -54 79 55 c152 106 372 198
623 259 535 130 1174 152 1767 60 188 -29 186 -29 228 -3 53 33 144 102 171
132 l23 24 -32 7 c-18 3 -29 9 -25 13 3 4 -13 12 -36 19 -24 6 -63 18 -88 27
-60 21 -346 74 -495 93 -271 34 -732 28 -985 -12 -183 -29 -457 -95 -636 -153
-158 -51 -347 -124 -394 -151 -8 -5 -56 -32 -106 -59 l-91 -50 -174 88 c-304
155 -626 255 -1044 325 -216 37 -648 46 -915 21z"/>
</g>
</svg>
